<?xml version="1.0" standalone="no"?>
<!DOCTYPE svg PUBLIC "-//W3C//DTD SVG 20010904//EN"
 "http://www.w3.org/TR/2001/REC-SVG-20010904/DTD/svg10.dtd">
<svg version="1.0" xmlns="http://www.w3.org/2000/svg"
 width="700.000000pt" height="700.000000pt" viewBox="0 0 700.000000 700.000000"
 preserveAspectRatio="xMidYMid meet">
<metadata>
Created by potrace 1.11, written by Peter Selinger 2001-2013
</metadata>
<g transform="translate(0.000000,700.000000) scale(0.100000,-0.100000)"
fill="#000000" stroke="none">
<path d="M3035 6729 c-253 -149 -478 -281 -500 -294 -22 -12 -168 -98 -325
-190 -157 -92 -301 -176 -320 -187 -19 -11 -87 -51 -150 -88 -63 -37 -236
-138 -385 -225 -561 -328 -615 -360 -615 -365 0 -3 73 -47 163 -99 89 -51 178
-104 197 -116 38 -24 210 -125 214 -125 1 0 69 -40 151 -89 l149 -89 46 25
c25 14 61 36 80 48 19 12 69 41 110 65 112 64 279 161 535 312 127 75 246 145
265 156 19 11 179 104 355 208 176 103 343 200 370 216 28 16 64 38 80 48 17
10 36 19 43 19 7 1 101 -51 210 -115 108 -65 215 -127 237 -140 22 -12 136
-79 254 -148 117 -69 216 -126 218 -126 3 0 17 -8 31 -19 15 -10 44 -28 65
-40 79 -45 113 -65 482 -281 209 -123 385 -223 390 -223 6 0 106 57 224 127
117 69 215 126 218 126 2 0 20 12 39 26 19 15 34 23 34 19 0 -5 8 -1 18 7 15
13 89 58 203 123 108 61 139 81 139 86 0 3 -12 12 -27 20 -16 8 -62 35 -103
60 -41 25 -95 57 -120 71 -25 14 -97 56 -160 93 -128 75 -164 96 -230 133 -25
14 -56 33 -70 42 -14 9 -45 28 -70 42 -47 27 -618 360 -950 556 -107 63 -215
126 -240 140 -25 14 -96 56 -159 94 -63 37 -116 68 -118 68 -3 0 -178 103
-283 166 -14 8 -56 33 -95 55 -38 22 -83 49 -100 59 -16 10 -32 19 -35 19 -3
0 -212 -122 -465 -270z"/>
<path d="M2935 4944 c-143 -84 -271 -160 -285 -167 -14 -8 -41 -23 -60 -34
-511 -299 -657 -386 -668 -396 -9 -10 -12 -172 -10 -765 l3 -752 230 135 c127
74 237 139 245 144 25 15 619 364 673 395 28 15 71 41 96 55 l46 27 0 757 c0
416 -2 757 -5 756 -3 0 -122 -70 -265 -155z"/>
<path d="M3797 5092 c-2 -4 -3 -344 -3 -756 l1 -749 630 -369 c347 -203 638
-374 648 -379 16 -9 17 29 17 748 l0 758 -197 115 c-108 63 -212 124 -232 135
-20 11 -90 52 -156 91 -66 40 -136 81 -155 91 -19 11 -114 67 -210 123 -307
181 -339 199 -343 192z"/>
<path d="M442 3239 l3 -1623 440 -258 c242 -142 451 -264 465 -271 14 -8 124
-72 245 -144 121 -71 240 -141 265 -155 25 -14 133 -77 240 -140 107 -63 317
-186 465 -273 149 -87 334 -195 412 -241 78 -46 152 -89 165 -96 13 -7 31 -19
41 -27 9 -8 18 -12 18 -10 1 2 2 235 3 517 l2 514 -26 17 c-21 15 -161 98
-305 181 -16 9 -242 141 -501 293 -259 151 -486 284 -505 295 -19 11 -124 73
-234 137 -110 65 -215 126 -233 137 -18 10 -44 25 -57 34 l-24 16 0 1086 c0
598 0 1094 0 1103 -1 9 -24 29 -52 45 -27 16 -77 45 -110 64 -89 53 -387 227
-529 309 -69 41 -140 82 -158 93 l-32 20 2 -1623z"/>
<path d="M6520 4838 c-38 -24 -55 -34 -115 -67 -33 -18 -672 -394 -713 -420
-11 -6 -14 -201 -15 -1112 l-2 -1103 -115 -67 c-63 -36 -178 -103 -255 -149
-77 -46 -156 -92 -175 -103 -19 -11 -48 -28 -65 -38 -16 -10 -41 -24 -55 -32
-29 -16 -480 -280 -525 -308 -16 -10 -41 -24 -55 -32 -55 -31 -564 -329 -599
-351 l-37 -23 1 -512 c0 -281 2 -512 5 -513 3 -1 16 5 30 14 14 8 336 197 715
418 380 222 737 431 795 465 58 34 161 95 230 136 69 41 130 76 135 78 6 2 57
32 115 66 192 114 373 220 537 315 89 52 171 101 183 110 l21 16 0 1613 c0
888 -2 1615 -4 1617 -1 2 -18 -7 -37 -18z"/>
<path d="M3415 3021 c-44 -27 -164 -97 -266 -157 -790 -461 -937 -550 -930
-557 6 -6 330 -199 476 -282 22 -13 213 -125 424 -248 l384 -226 36 24 c20 13
223 132 451 266 228 133 475 277 549 321 74 43 136 78 138 78 2 0 16 8 31 19
15 10 40 26 56 35 l28 18 -55 33 c-72 43 -146 85 -174 99 -13 6 -23 14 -23 19
0 4 -4 7 -9 7 -8 0 -424 242 -888 516 -78 46 -143 84 -145 83 -2 0 -39 -22
-83 -48z"/>
</g>
</svg>
